<svg xmlns="http://www.w3.org/2000/svg" viewBox="0 0 120 120" class="hella-mascot hella-mascot--waiting" role="img" aria-label="Hella puppy sitting patiently">
  <defs>
    <radialGradient id="hella-cheek" cx="0.5" cy="0.5" r="0.5">
      <stop offset="0%" stop-color="#ffb8b8" stop-opacity="0.7"/>
      <stop offset="100%" stop-color="#ffb8b8" stop-opacity="0"/>
    </radialGradient>
  </defs>
  <g class="hella-tail" transform-origin="80 92">
    <path d="M 78 92 Q 92 82 95 72 Q 100 72 100 78 Q 97 92 82 98 Z"
          fill="var(--hella-body, #f4d7b0)"
          stroke="var(--hella-stroke, #8a5a33)"
          stroke-width="1.6" stroke-linejoin="round"/>
  </g>
  <ellipse cx="42" cy="104" rx="11" ry="9" fill="var(--hella-body, #f4d7b0)" stroke="var(--hella-stroke, #8a5a33)" stroke-width="1.6"/>
  <ellipse cx="78" cy="104" rx="11" ry="9" fill="var(--hella-body, #f4d7b0)" stroke="var(--hella-stroke, #8a5a33)" stroke-width="1.6"/>
  <path d="M 35 96 Q 33 75 60 72 Q 87 75 85 96 Q 85 112 60 112 Q 35 112 35 96 Z"
        fill="var(--hella-body, #f4d7b0)"
        stroke="var(--hella-stroke, #8a5a33)"
        stroke-width="1.6" stroke-linejoin="round"/>
  <ellipse cx="50" cy="112" rx="6" ry="3.5" fill="var(--hella-body, #f4d7b0)" stroke="var(--hella-stroke, #8a5a33)" stroke-width="1.4"/>
  <ellipse cx="70" cy="112" rx="6" ry="3.5" fill="var(--hella-body, #f4d7b0)" stroke="var(--hella-stroke, #8a5a33)" stroke-width="1.4"/>
  <g class="hella-head">
    <circle cx="60" cy="46" r="30" fill="var(--hella-body, #f4d7b0)" stroke="var(--hella-stroke, #8a5a33)" stroke-width="1.6"/>
    <path d="M 38 28 Q 22 40 22 58 Q 22 72 32 74 Q 42 68 42 54 Q 42 38 40 30 Q 39 27 38 28 Z"
          fill="var(--hella-accent, #c08b56)"
          stroke="var(--hella-stroke, #8a5a33)"
          stroke-width="1.6" stroke-linejoin="round"/>
    <path d="M 80 28 Q 96 26 100 46 Q 102 62 90 68 Q 78 62 78 46 Q 78 34 80 28 Z"
          fill="var(--hella-accent, #c08b56)"
          stroke="var(--hella-stroke, #8a5a33)"
          stroke-width="1.6" stroke-linejoin="round"/>
    <ellipse cx="60" cy="58" rx="13" ry="9" fill="var(--hella-body-light, #fbeccd)"/>
    <ellipse cx="46" cy="58" rx="5" ry="3" fill="url(#hella-cheek)"/>
    <ellipse cx="74" cy="58" rx="5" ry="3" fill="url(#hella-cheek)"/>
    <g class="hella-eyes">
      <ellipse cx="50" cy="46" rx="4.2" ry="5" fill="#2a1a0a"/>
      <ellipse cx="70" cy="46" rx="4.2" ry="5" fill="#2a1a0a"/>
      <circle cx="51.6" cy="44.2" r="1.4" fill="#ffffff"/>
      <circle cx="71.6" cy="44.2" r="1.4" fill="#ffffff"/>
    </g>
    <ellipse cx="60" cy="56" rx="3.2" ry="2.3" fill="#2a1a0a"/>
    <path d="M 60 58.5 L 60 62" stroke="#2a1a0a" stroke-width="1.3" stroke-linecap="round"/>
    <path d="M 60 62 Q 56 65 54 63" stroke="#2a1a0a" stroke-width="1.4" fill="none" stroke-linecap="round"/>
    <path d="M 60 62 Q 64 65 66 63" stroke="#2a1a0a" stroke-width="1.4" fill="none" stroke-linecap="round"/>
    <path d="M 58 64 Q 60 68 62 64 Z" fill="#ff8ea8"/>
  </g>
</svg>
